<svg xmlns="http://www.w3.org/2000/svg" viewBox="0 0 217.35 285.03"><defs><style>.cls-1{fill:#004f73;}.cls-2{fill:#1c365e;}.cls-3{fill:#1d365e;}.cls-4{fill:#e77f32;}.cls-5{fill:#fff;}</style></defs><title>primaire</title><g id="Calque_2" data-name="Calque 2"><g id="Layer_1" data-name="Layer 1"><polygon class="cls-1" points="108.33 0 0 190.61 217.35 190.61 108.33 0"/><path class="cls-2" d="M17.49,274.78v4.64H1.38V245.56H6.26v29.22Z"/><path class="cls-2" d="M38.15,271.44C37.66,276.86,34.42,280,29,280s-8.66-3.48-8.66-9.57v-7.6c0-6,3.39-9.48,8.76-9.48s8.95,3.43,8.95,9.48v5.66H25v1.94c0,3.48,1.5,5.08,4.06,5.08,2.76,0,3.92-1.26,4.31-4ZM25,262.73v2.18h8.37v-2.18c0-3.48-1.55-5-4.26-5S25,259.25,25,262.73Z"/><path class="cls-2" d="M41.58,271.58h4.65c.05,2.33,1.45,4.12,4.4,4.12,2.47,0,3.87-1.21,3.87-3.2,0-5.13-12.53-3.38-12.53-12.09,0-4.36,3.24-7.11,8.22-7.11,5.42,0,8.28,3.38,8.47,8.13h-4.6c0-2.43-1.3-3.87-3.87-3.87-2.22,0-3.58,1.11-3.58,2.89,0,4.85,12.58,3,12.58,12.1,0,4.5-3.19,7.5-8.46,7.5C44.92,280.05,41.63,276.28,41.58,271.58Z"/><path class="cls-2" d="M71.53,280.49c3.63,0,5.61-1.5,5.61-6.49V245.56H82V274c0,7.16-3.63,11-10.5,11Z"/><path class="cls-2" d="M104.72,262.49v16.93H100.9l-.34-2.42a6.2,6.2,0,0,1-5.66,3.05c-4.69,0-7.84-3.09-7.84-7.88,0-5.18,3.58-7.84,9.24-7.84H100v-1.84c0-3-1.12-4.69-3.68-4.69a3.56,3.56,0,0,0-3.87,3.38H87.79c.24-4.88,3.53-7.88,8.66-7.88C101.91,253.3,104.72,256.63,104.72,262.49ZM100,268.25H96.3c-2.85,0-4.5,1.35-4.5,3.92,0,2.32,1.5,3.72,4.07,3.72s4.16-1.64,4.16-4.31Z"/><path class="cls-2" d="M109,271.58h4.64c0,2.33,1.45,4.12,4.41,4.12,2.46,0,3.86-1.21,3.86-3.2,0-5.13-12.53-3.38-12.53-12.09,0-4.36,3.25-7.11,8.23-7.11,5.42,0,8.27,3.38,8.47,8.13h-4.6c-.05-2.43-1.31-3.87-3.87-3.87-2.23,0-3.58,1.11-3.58,2.89,0,4.85,12.58,3,12.58,12.1,0,4.5-3.2,7.5-8.47,7.5C112.36,280.05,109.07,276.28,109,271.58Z"/><path class="cls-2" d="M160.36,263.46v16h-4.65V263.6c0-4.26-1.21-5.85-3.38-5.85-2.57,0-4.26,2.13-4.26,5.9v15.77h-4.64V263.6c0-4.26-1.31-5.85-3.49-5.85-2.51,0-4.21,2.13-4.21,5.9v15.77h-4.64V253.93h3.34l.48,2.85a6.67,6.67,0,0,1,6.1-3.48,6.14,6.14,0,0,1,6,3.87,6.79,6.79,0,0,1,6.43-3.87C157.7,253.3,160.36,256.63,160.36,263.46Z"/><path class="cls-2" d="M165.39,246.72a2.86,2.86,0,0,1,3-3,3,3,0,1,1,0,5.95A2.85,2.85,0,0,1,165.39,246.72Zm.63,7.21h4.69v25.49H166Z"/><path class="cls-2" d="M193.94,263.41v16h-4.69V263.65c0-4.16-1.12-5.9-3.59-5.9-2.66,0-4.35,2.13-4.35,5.9v15.77h-4.69V253.93H180l.48,2.85a7,7,0,0,1,6.33-3.48C191.18,253.3,193.94,256.44,193.94,263.41Z"/><path class="cls-2" d="M198,271.58h4.64c.05,2.33,1.46,4.12,4.41,4.12,2.47,0,3.87-1.21,3.87-3.2,0-5.13-12.53-3.38-12.53-12.09,0-4.36,3.24-7.11,8.22-7.11,5.42,0,8.28,3.38,8.47,8.13h-4.6c0-2.43-1.3-3.87-3.87-3.87-2.22,0-3.58,1.11-3.58,2.89,0,4.85,12.58,3,12.58,12.1,0,4.5-3.19,7.5-8.46,7.5C201.34,280.05,198.05,276.28,198,271.58Z"/><path class="cls-3" d="M5.57,202.57A10.58,10.58,0,0,0,6.48,204c4.45,6,11.73,2.29,16.9-.55,7-3.82,14-7.27,21-11,21.39-11.53,41.86-18.39,64.56-21.16a379.63,379.63,0,0,1,48.39-3.08c13.36.08,26.75.22,40.08.93,6.22.32,12.4,1.19,18.62,1.45a2.44,2.44,0,0,1,.54,0c-4.71-1.22-9.53-2.1-14.29-3.13a340.34,340.34,0,0,0-37.46-6,456.93,456.93,0,0,0-50.19-2.22c-34.06.24-66.94,8-98.94,25.85C11.29,187.54,1.85,195.11,5.57,202.57Z"/><path class="cls-4" d="M214,132,134.23,97.65c.21.09,10.5-13.46,11.3-14.36a91.61,91.61,0,0,1,14.79-12.73c4-2.89,10.81-7,10.87-12.61.12-10.09-25.71-13.43-31.77-8.92L109,71.72,79.14,53.57c-4.91-3-16-2.14-21.45-1.93-5,.21-11.38.93-15.75,3.52-8,4.76,2,9.5,5.53,13.69a43.56,43.56,0,0,1,6.82,10.76c2.16,5,7.24,7.36,12.06,9.16,4.23,1.58,11.8,3.08,14.11,7.38.93,1.71-.43,2.65-1.45,4-4.86,6.47-8.82,14.69-8.86,22.92,0,6.92.75,14.45,3.34,20.91a34.54,34.54,0,0,0,5.76,9.61c.28.33,16.78-20.91,18-22.9,0,0,7.78-12.31,13,.65C114.51,142,125,151,136.68,145.62c17.23-7.83,7.26-27.75-2.47-37.64,7,3.36,76.09,32.21,76.08,32.23S214,132,214,132Z"/><path class="cls-2" d="M1.49,228.27v-6.15C1.49,217.6,4,215,8.09,215c4.26,0,6.71,2.59,6.82,7.11h-3.6c-.11-2.48-1.18-3.66-3.18-3.66s-3,1.18-3,3.66v6.15c0,2.49,1.11,3.71,3,3.71s3.11-1.22,3.22-3.71H15c-.12,4.56-2.71,7.15-6.86,7.15S1.49,232.83,1.49,228.27Z"/><path class="cls-2" d="M32.92,208.19h3.59V235H32.92Z"/><path class="cls-2" d="M55.3,210a2.2,2.2,0,0,1,2.26-2.3,2.28,2.28,0,1,1,0,4.56A2.18,2.18,0,0,1,55.3,210Zm.49,5.52h3.59V235H55.79Z"/><path class="cls-2" d="M92,222.75V235H88.4V222.94c0-3.19-.85-4.52-2.74-4.52s-3.34,1.63-3.34,4.52V235H78.73V215.49h2.55l.37,2.19A5.38,5.38,0,0,1,86.51,215C89.88,215,92,217.42,92,222.75Z"/><path class="cls-2" d="M110.67,210a2.2,2.2,0,0,1,2.26-2.3,2.28,2.28,0,1,1,0,4.56A2.18,2.18,0,0,1,110.67,210Zm.48,5.52h3.6V235h-3.6Z"/><path class="cls-2" d="M147.1,215.45v26.24h-3.48v-7.78a5.49,5.49,0,0,1-3.79,1.55c-3.78,0-6.18-2.74-6.18-7.48v-5.37c0-4.78,2.52-7.56,6.18-7.56a5.69,5.69,0,0,1,4.42,2.22l.25-1.82ZM143.62,228v-5.41c0-2.78-1.34-4.15-3.19-4.15s-3.15,1.3-3.15,4.19V228c0,2.85,1.07,4.11,3.15,4.11S143.62,230.53,143.62,228Z"/><path class="cls-2" d="M179.53,215.49V235H177l-.37-2.19a5.37,5.37,0,0,1-4.86,2.67c-3.37,0-5.48-2.41-5.48-7.74V215.49h3.59v12.08c0,3.19.86,4.52,2.75,4.52s3.33-1.63,3.33-4.52V215.49Z"/><path class="cls-2" d="M212.06,228.9c-.37,4.16-2.85,6.52-7,6.52s-6.63-2.66-6.63-7.33v-5.82c0-4.63,2.59-7.26,6.7-7.26s6.86,2.63,6.86,7.26v4.34H202v1.48c0,2.67,1.15,3.89,3.11,3.89,2.12,0,3-1,3.3-3.08Zm-10-6.67v1.67h6.41v-1.67c0-2.66-1.18-3.85-3.26-3.85S202,219.57,202,222.23Z"/><path class="cls-5" d="M106.15,89.93a9.06,9.06,0,0,1-.36-3.12c-.18-2.59-.12-5.23-.16-7.83,0-3.17-.16-6.34-.2-9.51-.05-2.84,0-5.69.06-8.53a15.81,15.81,0,0,1,.44-4.71A.7.7,0,0,1,106,56a2.82,2.82,0,0,1,4.45.45c.05,1,.1,1.91.13,2.86.06,2.36.13,4.72.17,7.08,0,3,0,6-.05,9.07s-.32,5.86-.58,8.8c-.13,1.46-.89,9.24-3.58,6.26A2.43,2.43,0,0,1,106.15,89.93Z"/><path class="cls-5" d="M112.64,91.23a2.71,2.71,0,0,0,.17.76c1,2.21,2.64-1.42,3.09-2.16,1.71-2.82,3.86-3.08,6.67-4.07,2.63-.93,2.45-3.23.6-4.87-3.8-3.39-8.24,4.11-9.56,6.77A7.9,7.9,0,0,0,112.64,91.23Z"/><path class="cls-5" d="M87.88,71.16a4.51,4.51,0,0,0-2.2,2.5c-1.67,4.83,2.83,9,5.77,12.18A24.41,24.41,0,0,0,98,91.28c1.28.64,5.35,2.15,6.18,0,.62-1.58-1.52-2.48-2.62-3a19.07,19.07,0,0,1-4.6-2.61,19.5,19.5,0,0,1-4.83-5.82,16,16,0,0,1-1.36-4.84c-.2-1.19-.14-3.39-1.49-3.92A1.75,1.75,0,0,0,87.88,71.16Z"/></g></g></svg>